<svg width="229" height="38" viewBox="0 0 229 38" fill="none" xmlns="http://www.w3.org/2000/svg">
<g id="Jeans Pants">
<path d="M3.50065 37.3311C2.16332 37.3311 0.99644 37.1842 0 36.8906V31.8451C1.02266 32.1121 1.95355 32.2456 2.79265 32.2456C4.10376 32.2456 5.03464 31.8318 5.58531 31.0042C6.16219 30.1767 6.45064 28.8819 6.45064 27.12V0.331055H12.3899V27.08C12.3899 30.4169 11.6426 32.953 10.148 34.6882C8.65329 36.4501 6.43752 37.3311 3.50065 37.3311Z" fill="#F5F5F5"/>
<path d="M27.8893 10.9025C26.6569 10.9025 25.6867 11.3029 24.9787 12.1038C24.2707 12.9046 23.8643 14.0392 23.7594 15.5075H31.98C31.9538 14.0392 31.5736 12.9046 30.8393 12.1038C30.1313 11.3029 29.148 10.9025 27.8893 10.9025ZM28.7153 29.3224C25.254 29.3224 22.5532 28.348 20.6127 26.3992C18.6723 24.4505 17.7021 21.7008 17.7021 18.1503C17.7021 14.493 18.5936 11.6633 20.3767 9.66114C22.186 7.65898 24.6771 6.65789 27.85 6.65789C30.8918 6.65789 33.2518 7.53885 34.93 9.30075C36.6344 11.0627 37.4866 13.4919 37.4866 16.5886V19.4717H23.6414C23.6938 21.1803 24.1789 22.515 25.0967 23.4761C26.0407 24.4104 27.3387 24.8776 28.9907 24.8776C30.2756 24.8776 31.4949 24.7441 32.6487 24.4772C33.8024 24.1835 35.0086 23.743 36.2673 23.1557V27.7607C35.2446 28.2946 34.1433 28.6817 32.9633 28.922C31.8096 29.1889 30.3936 29.3224 28.7153 29.3224Z" fill="#F5F5F5"/>
<path d="M55.8875 28.922L54.7468 25.9588H54.5895C53.593 27.2134 52.5704 28.0944 51.5215 28.6016C50.4988 29.0821 49.1484 29.3224 47.4702 29.3224C45.3986 29.3224 43.7729 28.7217 42.5929 27.5204C41.4129 26.3191 40.8229 24.6106 40.8229 22.3949C40.8229 20.0724 41.6227 18.3639 43.2222 17.2694C44.8218 16.1482 47.2211 15.5342 50.4202 15.4274L54.1568 15.3072V14.3462C54.1568 12.1305 53.0424 11.0226 50.8135 11.0226C49.0828 11.0226 47.0637 11.5565 44.7562 12.6243L42.8289 8.57997C45.2938 7.27189 48.034 6.61785 51.0495 6.61785C53.9339 6.61785 56.1366 7.25854 57.6575 8.53993C59.2046 9.82132 59.9781 11.7567 59.9781 14.3462V28.922H55.8875ZM54.1568 18.791L51.8755 18.8711C50.1711 18.9245 48.8993 19.2448 48.0602 19.8321C47.2473 20.3927 46.8409 21.2603 46.8409 22.435C46.8409 24.1168 47.7849 24.9577 49.6728 24.9577C51.0364 24.9577 52.1246 24.5572 52.9375 23.7564C53.7504 22.9555 54.1568 21.901 54.1568 20.593V18.791Z" fill="#F5F5F5"/>
<path d="M85.8009 28.922H79.9403V16.1482C79.9403 14.5731 79.665 13.3985 79.1143 12.6243C78.5637 11.8235 77.6852 11.423 76.479 11.423C74.8532 11.423 73.6732 11.9837 72.939 13.1049C72.2048 14.1994 71.8377 16.0414 71.8377 18.6308V28.922H65.977V7.05833H70.461L71.2477 9.86136H71.5623C72.2179 8.79354 73.1226 7.99267 74.2763 7.45876C75.4301 6.92485 76.7281 6.65789 78.1703 6.65789C80.6614 6.65789 82.5494 7.35198 83.8343 8.74015C85.1454 10.1016 85.8009 12.0771 85.8009 14.6666V28.922Z" fill="#F5F5F5"/>
<path d="M106.814 22.435C106.814 24.6774 106.04 26.3859 104.493 27.5605C102.972 28.7351 100.691 29.3224 97.6491 29.3224C96.102 29.3224 94.7778 29.2156 93.6765 29.0021C92.5752 28.7885 91.5394 28.4681 90.5692 28.041V23.1157C91.6443 23.6496 92.8636 24.0901 94.2271 24.4371C95.5907 24.7842 96.7969 24.9577 97.8458 24.9577C99.9698 24.9577 101.032 24.3303 101.032 23.0756C101.032 22.5951 100.888 22.208 100.599 21.9144C100.337 21.6207 99.8518 21.3004 99.1438 20.9534C98.462 20.5796 97.5442 20.1391 96.3905 19.6319C94.7385 18.9378 93.5191 18.2971 92.7325 17.7098C91.972 17.0958 91.4083 16.4018 91.0412 15.6276C90.7003 14.8534 90.5298 13.8924 90.5298 12.7445C90.5298 10.7957 91.264 9.30075 92.7325 8.25963C94.2271 7.1918 96.3249 6.65789 99.0258 6.65789C101.622 6.65789 104.139 7.23185 106.578 8.37976L104.808 12.6644C103.733 12.2106 102.723 11.8368 101.779 11.5432C100.861 11.2228 99.9173 11.0627 98.9471 11.0627C97.2165 11.0627 96.3511 11.5432 96.3511 12.5042C96.3511 13.0381 96.6265 13.5053 97.1771 13.9057C97.7278 14.2795 98.9471 14.8534 100.835 15.6276C102.513 16.3217 103.746 16.9757 104.532 17.5897C105.319 18.177 105.896 18.8577 106.263 19.6319C106.63 20.4061 106.814 21.3404 106.814 22.435Z" fill="#F5F5F5"/>
<path d="M129.083 13.7856H131.05C132.886 13.7856 134.249 13.4252 135.141 12.7044C136.058 11.957 136.517 10.8758 136.517 9.46093C136.517 8.04606 136.137 7.00494 135.377 6.33755C134.616 5.64346 133.423 5.29642 131.797 5.29642H129.083V13.7856ZM142.535 9.26071C142.535 12.3307 141.591 14.6799 139.703 16.3083C137.815 17.9368 135.128 18.751 131.64 18.751H129.083V28.922H123.144V0.331055H132.112C135.521 0.331055 138.104 1.07853 139.861 2.57348C141.644 4.06843 142.535 6.2975 142.535 9.26071Z" fill="#F0E615"/>
<path d="M161.019 28.922L159.878 25.9588H159.721C158.725 27.2134 157.702 28.0944 156.653 28.6016C155.63 29.0821 154.28 29.3224 152.602 29.3224C150.53 29.3224 148.905 28.7217 147.725 27.5204C146.545 26.3191 145.955 24.6106 145.955 22.3949C145.955 20.0724 146.754 18.3639 148.354 17.2694C149.953 16.1482 152.353 15.5342 155.552 15.4274L159.288 15.3072V14.3462C159.288 12.1305 158.174 11.0226 155.945 11.0226C154.214 11.0226 152.195 11.5565 149.888 12.6243L147.961 8.57997C150.425 7.27189 153.166 6.61785 156.181 6.61785C159.066 6.61785 161.268 7.25854 162.789 8.53993C164.336 9.82132 165.11 11.7567 165.11 14.3462V28.922H161.019ZM159.288 18.791L157.007 18.8711C155.303 18.9245 154.031 19.2448 153.192 19.8321C152.379 20.3927 151.973 21.2603 151.973 22.435C151.973 24.1168 152.916 24.9577 154.804 24.9577C156.168 24.9577 157.256 24.5572 158.069 23.7564C158.882 22.9555 159.288 21.901 159.288 20.593V18.791Z" fill="#F0E615"/>
<path d="M190.933 28.922H185.072V16.1482C185.072 14.5731 184.797 13.3985 184.246 12.6243C183.695 11.8235 182.817 11.423 181.611 11.423C179.985 11.423 178.805 11.9837 178.071 13.1049C177.336 14.1994 176.969 16.0414 176.969 18.6308V28.922H171.109V7.05833H175.593L176.379 9.86136H176.694C177.35 8.79354 178.254 7.99267 179.408 7.45876C180.562 6.92485 181.86 6.65789 183.302 6.65789C185.793 6.65789 187.681 7.35198 188.966 8.74015C190.277 10.1016 190.933 12.0771 190.933 14.6666V28.922Z" fill="#F0E615"/>
<path d="M206.006 24.5572C207.029 24.5572 208.261 24.3303 209.703 23.8765V28.3213C208.235 28.9887 206.439 29.3224 204.315 29.3224C201.981 29.3224 200.277 28.7217 199.201 27.5204C198.126 26.2925 197.589 24.4772 197.589 22.0746V11.5432H194.796V9.02045L198.021 7.01828L199.713 2.41331H203.449V7.05833H209.467V11.5432H203.449V22.0746C203.449 22.9288 203.685 23.5562 204.157 23.9566C204.629 24.357 205.246 24.5572 206.006 24.5572Z" fill="#F0E615"/>
<path d="M229 22.435C229 24.6774 228.226 26.3859 226.679 27.5605C225.158 28.7351 222.877 29.3224 219.835 29.3224C218.288 29.3224 216.964 29.2156 215.863 29.0021C214.761 28.7885 213.726 28.4681 212.755 28.041V23.1157C213.831 23.6496 215.05 24.0901 216.413 24.4371C217.777 24.7842 218.983 24.9577 220.032 24.9577C222.156 24.9577 223.218 24.3303 223.218 23.0756C223.218 22.5951 223.074 22.208 222.785 21.9144C222.523 21.6207 222.038 21.3004 221.33 20.9534C220.648 20.5796 219.73 20.1391 218.577 19.6319C216.925 18.9378 215.705 18.2971 214.919 17.7098C214.158 17.0958 213.595 16.4018 213.227 15.6276C212.887 14.8534 212.716 13.8924 212.716 12.7445C212.716 10.7957 213.45 9.30075 214.919 8.25963C216.413 7.1918 218.511 6.65789 221.212 6.65789C223.808 6.65789 226.325 7.23185 228.764 8.37976L226.994 12.6644C225.919 12.2106 224.909 11.8368 223.965 11.5432C223.048 11.2228 222.104 11.0627 221.133 11.0627C219.403 11.0627 218.537 11.5432 218.537 12.5042C218.537 13.0381 218.813 13.5053 219.363 13.9057C219.914 14.2795 221.133 14.8534 223.021 15.6276C224.7 16.3217 225.932 16.9757 226.719 17.5897C227.505 18.177 228.082 18.8577 228.449 19.6319C228.816 20.4061 229 21.3404 229 22.435Z" fill="#F0E615"/>
</g>
</svg>
